<?xml version="1.0" standalone="no"?>
<!DOCTYPE svg PUBLIC "-//W3C//DTD SVG 20010904//EN"
 "http://www.w3.org/TR/2001/REC-SVG-20010904/DTD/svg10.dtd">
<svg version="1.0" xmlns="http://www.w3.org/2000/svg"
 width="512.000000pt" height="512.000000pt" viewBox="0 0 512.000000 512.000000"
 preserveAspectRatio="xMidYMid meet">
<metadata>
Created by potrace 1.11, written by Peter Selinger 2001-2013
</metadata>
<g transform="translate(0.000000,512.000000) scale(0.100000,-0.100000)"
fill="#000000" stroke="none">
<path d="M1443 4646 c-127 -31 -255 -121 -329 -232 -20 -31 -52 -100 -71 -153
l-34 -96 123 -120 c105 -102 413 -398 577 -555 26 -25 146 -140 267 -256 120
-116 239 -231 264 -254 37 -35 471 -454 493 -476 4 -4 55 44 114 105 l108 113
76 -74 c145 -139 481 -463 537 -517 566 -542 702 -675 695 -682 -15 -15 -319
-98 -468 -128 -425 -86 -778 -104 -1270 -65 -33 2 -76 6 -95 9 -19 2 -53 6
-75 9 -124 14 -347 49 -455 71 -14 3 -50 9 -80 15 -30 6 -66 13 -80 16 -14 3
-34 7 -45 9 -159 34 -541 128 -890 220 -282 74 -423 71 -584 -15 -101 -54
-186 -168 -210 -280 -11 -52 -7 -181 7 -225 50 -156 187 -284 336 -315 23 -4
95 -20 161 -34 66 -15 134 -29 150 -32 17 -3 64 -12 105 -21 87 -17 65 -14
290 -52 96 -17 193 -33 215 -36 22 -3 63 -10 90 -15 47 -8 66 -11 178 -25 23
-3 74 -10 112 -15 107 -14 145 -19 205 -25 30 -3 71 -7 90 -10 19 -2 69 -7
110 -11 41 -3 91 -8 110 -9 289 -27 943 -27 1180 -1 19 2 64 7 100 11 73 7 92
9 203 25 95 14 127 19 147 25 8 3 33 7 55 11 89 13 360 85 430 114 11 4 43 16
70 25 94 33 280 127 379 192 205 136 366 336 383 474 6 54 -15 129 -52 178
-13 18 -50 52 -83 76 -33 24 -78 61 -99 82 -22 21 -80 76 -129 123 -49 47
-177 169 -284 271 -107 103 -211 201 -230 219 -19 18 -118 112 -220 210 -102
97 -197 188 -211 201 -31 28 -345 329 -459 439 -125 121 -478 461 -530 510
-26 25 -123 118 -216 207 -93 88 -194 185 -224 214 -30 28 -139 133 -242 231
-228 219 -221 213 -283 253 -86 55 -159 77 -265 80 -52 2 -118 -3 -147 -9z"/>
</g>
</svg>
