<?xml version="1.0" standalone="no"?>
<!DOCTYPE svg PUBLIC "-//W3C//DTD SVG 20010904//EN"
 "http://www.w3.org/TR/2001/REC-SVG-20010904/DTD/svg10.dtd">
<svg version="1.0" xmlns="http://www.w3.org/2000/svg"
 width="512.000000pt" height="512.000000pt" viewBox="0 0 512.000000 512.000000"
 preserveAspectRatio="xMidYMid meet">
<metadata>
Created by potrace 1.11, written by Peter Selinger 2001-2013
</metadata>
<g transform="translate(0.000000,512.000000) scale(0.100000,-0.100000)"
fill="#000000" stroke="none">
<path d="M1163 5108 c-23 -11 -52 -65 -112 -213 -19 -44 -37 -88 -42 -97 -16
-32 -67 -187 -98 -295 -53 -191 -76 -343 -74 -501 l1 -93 -39 23 c-86 51 -193
158 -263 261 -24 36 -33 59 -36 97 -3 48 -69 77 -119 53 -27 -13 -35 -27 -60
-107 -34 -108 -68 -229 -75 -271 -3 -16 -7 -41 -11 -55 -3 -14 -7 -36 -9 -50
-14 -89 -18 -115 -21 -120 -17 -29 -26 -465 -13 -615 9 -91 41 -271 64 -360 9
-33 17 -64 18 -70 2 -5 6 -23 11 -40 73 -287 293 -691 488 -902 43 -46 59 -53
102 -42 45 12 63 52 58 124 -10 152 -3 439 12 465 1 3 5 28 9 55 8 66 46 203
81 289 85 211 245 411 423 529 60 40 58 39 167 20 66 -11 318 -9 426 4 62 7
165 26 229 42 63 16 149 34 190 41 41 6 89 14 105 17 101 16 192 21 360 18
297 -5 489 -48 720 -160 360 -174 659 -508 835 -930 22 -55 45 -109 50 -120
15 -34 68 -206 85 -282 21 -88 46 -116 100 -111 27 2 43 11 56 28 16 22 76
242 93 340 3 19 8 46 11 60 9 45 24 134 29 175 3 22 8 56 11 75 32 227 38 616
13 815 -61 492 -200 865 -440 1185 -256 340 -643 596 -1042 690 -143 33 -426
46 -561 26 -288 -43 -523 -148 -785 -351 -138 -107 -170 -126 -250 -149 -190
-55 -402 104 -557 418 -29 59 -44 78 -67 86 -35 12 -44 12 -73 -2z"/>
<path d="M3179 1435 c-121 -30 -262 -130 -366 -260 l-31 -40 -23 30 c-144 185
-320 276 -524 270 -75 -2 -94 -6 -158 -38 -61 -30 -157 -110 -157 -131 0 -3
-12 -22 -26 -43 -14 -21 -56 -102 -94 -180 -38 -79 -86 -164 -107 -190 -136
-168 -311 -257 -524 -268 -36 -1 -76 -6 -88 -10 -24 -7 -51 -53 -51 -85 0 -51
198 -203 422 -323 138 -74 330 -138 458 -154 77 -9 254 -10 319 0 155 22 342
101 474 201 41 31 78 56 81 56 4 0 36 -23 71 -50 35 -28 67 -50 70 -50 3 0 24
-12 47 -26 87 -55 247 -112 363 -130 58 -9 264 -10 315 -1 272 43 532 161 761
343 121 96 144 144 95 197 -21 23 -32 26 -88 26 -61 0 -144 15 -238 45 -181
57 -276 151 -400 398 -43 86 -94 180 -113 210 -112 175 -293 250 -488 203z"/>
</g>
</svg>
